<?xml version="1.0" encoding="utf-8"?>
<!-- Generator: Adobe Illustrator 23.0.5, SVG Export Plug-In . SVG Version: 6.00 Build 0)  -->
<svg version="1.1"
	 id="svg8" xmlns:cc="http://creativecommons.org/ns#" xmlns:dc="http://purl.org/dc/elements/1.1/" xmlns:inkscape="http://www.inkscape.org/namespaces/inkscape" xmlns:rdf="http://www.w3.org/1999/02/22-rdf-syntax-ns#" xmlns:sodipodi="http://sodipodi.sourceforge.net/DTD/sodipodi-0.dtd" xmlns:svg="http://www.w3.org/2000/svg"
	 xmlns="http://www.w3.org/2000/svg" xmlns:xlink="http://www.w3.org/1999/xlink" x="0px" y="0px" viewBox="0 0 648.1 102.5"
	 style="enable-background:new 0 0 648.1 102.5;" xml:space="preserve">
<style type="text/css">
	.st0{fill:#FFFFFF;}
	.st1{fill:#C70A0C;}
</style>
<g id="layer1" transform="translate(46.644621,-93.314725)" inkscape:groupmode="layer" inkscape:label="Layer 1">
	<g id="surface44525" transform="matrix(0.21415904,0,0,0.21415904,-57.032891,82.926454)">
		<path id="path10" inkscape:connector-curvature="0" class="st0" d="M225.3,293.1c19.9-74.6-2.8-152.8-57-194.2
			c-73.8,46.7-116.3,134.5-101,226c5.1,30.3,16,58.1,31.5,82.4C156.5,391.3,207.3,360.9,225.3,293.1 M324.9,508.4
			C446.7,488,528.8,372.6,508.3,250.9c-17-101.3-99.6-175.2-197.1-185.4c-19.7-2.1-40-1.5-60.5,1.9c-24.3,4.1-46.9,12-67.6,22.9
			c107.3,36.4,165,91.7,169,148.4c2,35-14.3,60.3-35.7,81l151.8-10.6c4.3-0.3,5.6,4.7,0.4,6.2l-362,103.8
			c36.9,50.8,94.1,84.5,157.6,91.2C284.1,512.3,304.4,511.8,324.9,508.4 M312.7,52.1c119.2,12.4,212.2,113.2,212.2,235.7
			c0,130.9-106,237.1-237,237.1C157,525,50.9,418.9,50.8,288s106-237.1,236.9-237.1C296.2,50.8,304.5,51.3,312.7,52.1"/>
		<path id="path12" inkscape:connector-curvature="0" class="st1" d="M67.4,324.9c5.1,30.2,16,58,31.5,82.4
			c57.7-16.1,108.4-46.5,126.5-114.3c19.8-74.6-2.8-152.8-57-194.2C94.5,145.6,52,233.4,67.4,324.9 M508.3,250.8
			c20.5,121.8-61.7,237.1-183.4,257.5c-20.5,3.5-40.8,4-60.5,1.9c-63.5-6.6-120.8-40.4-157.6-91.2l362-103.8
			c5.2-1.5,3.9-6.5-0.4-6.2l-151.8,10.6c21.4-20.6,37.6-46,35.7-81c-4-56.7-61.7-112-169-148.4c20.6-10.9,43.3-18.8,67.6-22.9
			c20.5-3.4,40.8-4,60.5-1.9C408.7,75.7,491.3,149.5,508.3,250.8"/>
		<path id="path14" inkscape:connector-curvature="0" d="M1752.6,380.8v-77.9h-78.1v77.9h-42.9V195.2h42.9v74h78.1v-74h43.2v185.6
			C1795.8,380.8,1752.6,380.8,1752.6,380.8z"/>
		<path id="path16" inkscape:connector-curvature="0" d="M828.2,195.2v116.2c0,12.8,1.9,24,5.6,33c3.7,9,9.1,16.4,16,22.1
			c7,5.8,15.4,10.1,24.9,12.7c9.7,2.7,20.7,4.1,32.7,4.1c11.9,0,22.8-1.4,32.4-4.1c9.4-2.6,17.4-6.9,23.8-12.6
			c6.4-5.7,11.4-13.2,15-22.2c3.5-9,5.3-20.1,5.3-33V195.2h-40.1v115c0,11.7-2.9,21.2-8.6,28.1c-5.9,7.1-15.2,10.7-27.7,10.7
			c-12.3,0-21.5-3.6-27.5-10.6c-5.8-6.9-8.8-16.4-8.8-28.1v-115h-43V195.2z"/>
		<path id="path18" inkscape:connector-curvature="0" d="M704.5,380.9v-151H654v-34.7h144.1v16.6c0,10-8.1,18-18,18h-32.7v151h-42.9
			V380.9z"/>
		<path id="path20" inkscape:connector-curvature="0" d="M1393.9,195.2h42.9v185.6h-42.9V195.2z"/>
		<path id="path22" inkscape:connector-curvature="0" d="M1251,294.3l1.4,1.8l54.8,70.6c7,9,17.5,14.2,28.9,14.2h34.2l-78.5-99.9
			l-1.2-1.5l1.2-1.5l64.5-83h-44.6l-59.2,80l-1.5,1.9v-3.4v-78.6h-42.9v185.7h42.9v-83.2L1251,294.3z"/>
		<path id="path24" inkscape:connector-curvature="0" d="M1066.4,280.2h25c9,0,15.9-2.5,20.4-7.3s6.7-11.1,6.7-18.6
			c0-7.7-2.2-14-6.6-18.9s-11.3-7.4-20.6-7.4h-25L1066.4,280.2L1066.4,280.2z M1152.2,380.8c-12.7,0-24.7-6.7-31.3-17.6l-33.4-55.1
			h-21.2v72.7h-42.9V195.2h76.4c19.6,0,35,5.1,45.7,15.2c10.7,10.1,16.1,23.9,16.1,41.1c0,8.7-2.3,17.5-6.9,26.2
			c-4.5,8.5-12.5,15.5-23.8,20.8l-2.5,1.2l52.1,81.1C1180.5,380.8,1152.2,380.8,1152.2,380.8z"/>
		<path id="path26" inkscape:connector-curvature="0" d="M1472,373v-35.6c13.7,6.3,31.3,12.6,49.4,12.6c20.9,0,31.6-7.2,31.6-20.9
			c0-16.2-14.2-17.9-42.8-30.2c-19.4-8.7-37.9-22.1-37.9-53.2c0-36.2,27.6-53.2,65.8-53.2c20.3,0,37.6,4.8,47.3,8.4v34.7
			c-9.7-4.5-27-9.9-44.3-9.9c-18.8,0-27.6,6.9-27.6,18.8c0,12.6,10.6,16.5,29.7,23.6c24.6,12.3,53.1,17.6,53.1,59.5
			c0,36.2-28.8,55.9-67.4,55.9C1505.4,383.4,1486.6,379.2,1472,373"/>
		<path id="path28" inkscape:connector-curvature="0" d="M2797.1,380.8V195.2h116.2V212c0,9.8-8,17.8-17.8,17.8H2840v39.9h62.3v31
			H2840v45.4h73.3v34.7C2913.3,380.8,2797.1,380.8,2797.1,380.8z"/>
		<path id="path30" inkscape:connector-curvature="0" d="M2373,380.8V195.2h20.8c12.2,0,22,9.9,22,22v130.2h68.5v33.4H2373z"/>
		<path id="path32" inkscape:connector-curvature="0" d="M2107.5,380.8V195.3h42.9v185.5H2107.5z"/>
		<path id="path34" inkscape:connector-curvature="0" d="M2232.6,280.1h25c9,0,15.9-2.5,20.4-7.3s6.7-11.1,6.7-18.6
			c0-7.7-2.2-14-6.6-18.9c-4.4-4.9-11.3-7.4-20.6-7.4h-25v52.2H2232.6z M2318.4,380.8c-12.7,0-24.7-6.7-31.3-17.6l-33.4-55.1h-21.2
			v72.7h-42.9V195.2h76.4c19.7,0,35,5.1,45.7,15.2c10.7,10.1,16.1,23.9,16.1,41.1c0,8.7-2.3,17.5-6.9,26.2
			c-4.5,8.5-12.5,15.5-23.8,20.8l-2.5,1.2l52.1,81.1L2318.4,380.8z"/>
		<path id="path36" inkscape:connector-curvature="0" d="M1960,313.2l16.8-46.9c3.7-10.6,7.5-21.7,10-29.9h0.6
			c2.2,8.5,5.9,19.1,9.7,29.9l16.2,46.9H1960z M2013,195.2h-49.3l-70,185.7h30.9c7.9,0,14.8-5,17.2-12.4l7.2-21.8h75.3l11,34.2h46.5
			L2013,195.2z"/>
		<path id="path38" inkscape:connector-curvature="0" d="M2947.9,373v-35.6c13.6,6.3,31.2,12.5,49.4,12.5c20.9,0,31.6-7.2,31.6-20.9
			c0-16.2-14.3-17.9-42.8-30.2c-19.4-8.7-37.9-22.1-37.9-53.2c0-36.2,27.6-53.2,65.8-53.2c20.3,0,37.6,4.8,47.3,8.4v34.7
			c-9.7-4.5-27-9.9-44.3-9.9c-18.8,0-27.6,6.9-27.6,18.8c0,12.5,10.6,16.4,29.7,23.6c24.6,12.3,53.1,17.6,53.1,59.5
			c0,36.2-28.8,55.9-67.3,55.9C2981.2,383.4,2962.4,379.2,2947.9,373"/>
		<path id="path40" inkscape:connector-curvature="0" d="M2594.2,195.2h26.6c12.6,0,24.4,6.5,31,17.2l51.8,83.2
			c5.8,9.2,12.6,21.5,16.6,30.1h0.9c-0.6-8.3-0.9-20-0.9-28.3V195.2h37.6v185.6h-47l-63-100.4c-5.9-9.2-12-20.3-16.3-28.6h-0.6
			c0.3,8,0.9,17.6,0.9,26.5v102.5h-37.6V195.2z"/>
		<path id="path42" inkscape:connector-curvature="0" d="M2512,380.8V195.3h42.9v185.5H2512z"/>
	</g>
</g>
</svg>
