<?xml version="1.0" encoding="utf-8"?>
<!-- Generator: Adobe Illustrator 23.0.5, SVG Export Plug-In . SVG Version: 6.00 Build 0)  -->
<svg version="1.1" id="Слой_1" xmlns="http://www.w3.org/2000/svg" xmlns:xlink="http://www.w3.org/1999/xlink" x="0px" y="0px"
	 width="200px" height="28px" viewBox="0 0 200 28" enable-background="new 0 0 200 28" xml:space="preserve">
<linearGradient id="SVGID_1_" gradientUnits="userSpaceOnUse" x1="90.8789" y1="14.0287" x2="117.045" y2="14.0287" gradientTransform="matrix(1 0 0 -1 0 27.937)">
	<stop  offset="0" style="stop-color:#B02224"/>
	<stop  offset="0.072" style="stop-color:#B72226"/>
	<stop  offset="0.309" style="stop-color:#CC252B"/>
	<stop  offset="0.544" style="stop-color:#DA262F"/>
	<stop  offset="0.776" style="stop-color:#E32631"/>
	<stop  offset="1" style="stop-color:#E62731"/>
</linearGradient>
<path fill="url(#SVGID_1_)" d="M116.69,0.667h-13.379L90.879,17.733L97.636,27c0.135,0.2,0.405,0.2,0.541,0l18.852-25.8
	C117.095,1,116.96,0.667,116.69,0.667z"/>
<path fill="#E62731" d="M81.689,0.667c-7.23,0-11.419,8.067-7.23,13.867l9.054,12.4c0.135,0.2,0.405,0.2,0.541,0L103.243,0.6H81.689
	V0.667z"/>
<path fill="#46484D" d="M66.419,3.6c-1.419-1-2.973-1.8-4.797-2.2c-1.757-0.467-3.513-0.667-5.27-0.667h-8.986
	c-0.27,0-0.541,0.2-0.541,0.533v25.4c0,0.267,0.203,0.533,0.541,0.533h8.986c1.757,0,3.514-0.267,5.27-0.733
	c1.757-0.533,3.378-1.333,4.797-2.4c1.419-1.067,2.568-2.467,3.446-4.133c0.878-1.667,1.351-3.667,1.351-6
	c0-2.467-0.473-4.6-1.351-6.267C68.986,6,67.838,4.6,66.419,3.6z M65.135,18.333c-0.608,1.2-1.419,2.067-2.432,2.8
	c-1.014,0.667-2.095,1.2-3.378,1.467c-1.216,0.267-2.5,0.4-3.716,0.4h-3.987V4.733h3.987c1.216,0,2.5,0.133,3.716,0.4
	c1.216,0.267,2.365,0.733,3.378,1.4c1.014,0.667,1.824,1.6,2.432,2.8c0.608,1.2,0.946,2.733,0.946,4.6
	C66.081,15.667,65.743,17.2,65.135,18.333z"/>
<path fill="#46484D" d="M146.891,0.667h-3.716c-0.27,0-0.54,0.2-0.54,0.533v19.267h-0.068l-11.216-17.8c-0.743-1.2-2.162-2-3.581-2
	h-3.446c-0.271,0-0.541,0.2-0.541,0.533v25.4c0,0.267,0.203,0.533,0.541,0.533h3.716c0.27,0,0.541-0.2,0.541-0.533V6.667h0.067
	l11.487,18.4c0.743,1.267,2.162,2,3.581,2h3.175c0.271,0,0.541-0.2,0.541-0.533v-25.4C147.364,0.933,147.162,0.667,146.891,0.667z"
	/>
<path fill="#46484D" d="M116.622,4.8l-4.054,5.533c-0.203,0.267-0.27,0.533-0.27,0.867v15.333c0,0.267,0.203,0.533,0.54,0.533h3.717
	c0.27,0,0.54-0.2,0.54-0.533V4.867C117.028,4.733,116.757,4.667,116.622,4.8z"/>
<path fill="#46484D" d="M176.216,12.067h-6.689c-0.203,0-0.473,0.133-0.608,0.267l-2.297,3c-0.203,0.267,0,0.6,0.27,0.6h5.202v6.733
	c-1.486,0.6-3.31,0.933-5.337,0.933c-1.487,0-2.838-0.267-3.987-0.733c-0.473-0.2-0.946-0.467-1.351-0.733
	c-0.608-0.4-1.149-0.8-1.622-1.333c-0.811-0.867-1.419-1.867-1.892-3.067c-0.473-1.2-0.675-2.467-0.675-3.933
	c0-1.267,0.202-2.4,0.54-3.467c0.068-0.133,0.068-0.2,0.135-0.333c0.473-1.2,1.081-2.2,1.892-3.067s1.757-1.533,2.906-2.067
	c1.148-0.467,2.432-0.733,3.851-0.733s2.77,0.267,3.986,0.8c0.879,0.4,1.69,0.8,2.23,1.333c0.203,0.2,0.608,0.133,0.743-0.067
	l2.23-2.933c0.203-0.267,0.135-0.6-0.135-0.733c-0.946-0.667-2.027-1.2-3.311-1.6C170.54,0.333,168.581,0,166.419,0
	c-2.095,0-3.987,0.333-5.743,1c-1.757,0.667-3.311,1.6-4.595,2.733c-0.676,0.6-1.284,1.333-1.824,2.067
	c-0.473,0.733-0.879,1.467-1.284,2.267c-0.743,1.733-1.149,3.6-1.149,5.733c0,0.4,0,0.8,0.068,1.133
	c0.135,1.6,0.473,3.133,1.013,4.533c0.744,1.733,1.689,3.2,3.041,4.4c1.284,1.2,2.838,2.2,4.594,2.867c1.825,0.667,3.784,1,5.946,1
	c2.095,0,3.987-0.2,5.608-0.533c1.487-0.333,2.838-0.733,4.055-1.333c0.27-0.133,0.405-0.4,0.405-0.667V12.467
	C176.757,12.267,176.554,12.067,176.216,12.067z"/>
<path fill="#46484D" d="M13.649,15.267C15.203,14.8,16.419,14.2,17.568,13c1.081-1.2,1.622-2.8,1.622-4.667
	c0-1.4-0.27-2.6-0.811-3.533c-0.541-1-1.284-1.733-2.23-2.333c-0.946-0.6-1.959-1-3.176-1.267c-1.216-0.267-2.432-0.4-3.649-0.4
	H0.541C0.27,0.8,0,1,0,1.333v25.4C0,27,0.203,27.267,0.541,27.267h3.716c0.27,0,0.541-0.2,0.541-0.533V16.067h4.122l5.811,10.8
	c0.135,0.267,0.405,0.4,0.676,0.4h4.054c0.338,0,0.541-0.333,0.405-0.667L13.649,15.267z M12.568,11.333
	c-0.541,0.267-1.149,0.467-1.824,0.533C10.068,12,9.392,12,8.716,12H4.797V4.6h4.324c0.608,0,1.216,0.067,1.892,0.133
	C11.689,4.867,12.23,5,12.703,5.267c0.473,0.267,0.946,0.667,1.216,1.133c0.338,0.467,0.473,1.067,0.473,1.8
	c0,0.8-0.203,1.467-0.54,1.933C13.514,10.667,13.108,11.067,12.568,11.333z"/>
<path fill="#46484D" d="M198.783,16.133c-0.473-0.867-1.148-1.6-1.892-2.133c-0.743-0.6-1.621-1-2.567-1.4
	c-0.946-0.333-1.824-0.667-2.635-0.933c-0.068,0-0.203-0.067-0.271-0.067c-0.135-0.067-0.27-0.067-0.337-0.133
	c-0.541-0.133-1.014-0.333-1.419-0.467c-0.608-0.2-1.149-0.467-1.622-0.8c-0.473-0.267-0.811-0.667-1.013-1.067
	c-0.271-0.4-0.406-0.933-0.406-1.533c0-0.667,0.135-1.2,0.406-1.667c0.27-0.467,0.675-0.8,1.148-1.133
	c0.473-0.267,0.946-0.467,1.487-0.667c0.54-0.133,1.081-0.2,1.689-0.2c0.946,0,1.892,0.2,2.77,0.667
	c0.338,0.133,0.676,0.333,0.946,0.533c0.27,0.133,0.541,0.133,0.743-0.133l1.96-2.667c0.203-0.267,0.135-0.6-0.135-0.733
	c-0.608-0.333-1.217-0.6-1.892-0.867C194.324,0.267,192.973,0,191.621,0c-1.216,0-2.432,0.133-3.581,0.467
	c-1.149,0.333-2.23,0.8-3.108,1.4c-0.946,0.667-1.689,1.467-2.23,2.4c-0.54,1-0.878,2.133-0.878,3.467
	c0,1.267,0.203,2.267,0.608,3.133c0.405,0.867,0.946,1.533,1.554,2.133c0.676,0.6,1.351,1,2.162,1.4c0.743,0.333,1.487,0.6,2.23,0.8
	c0.068,0,0.135,0.067,0.203,0.067c0,0,0,0,0.067,0c0.811,0.267,1.622,0.533,2.365,0.8c0.743,0.267,1.419,0.533,1.96,0.867
	c0.54,0.333,1.013,0.733,1.351,1.2c0.338,0.467,0.473,1.067,0.473,1.733c0,0.733-0.135,1.333-0.406,1.8
	c-0.27,0.467-0.675,0.867-1.148,1.2c-0.473,0.333-1.014,0.533-1.554,0.667c-0.608,0.133-1.149,0.2-1.689,0.2
	c-1.082,0-2.163-0.267-3.244-0.8c-0.878-0.4-1.756-1-2.229-1.4c-0.203-0.2-0.609-0.133-0.744,0.067l-2.027,2.733
	c-0.135,0.2-0.135,0.533,0.068,0.733c0.54,0.467,1.689,1.267,2.973,1.733c1.689,0.6,3.378,0.933,5.135,0.933
	c1.284,0,2.568-0.2,3.716-0.533c1.216-0.333,2.23-0.867,3.108-1.6c0.879-0.667,1.622-1.6,2.095-2.6
	c0.54-1.067,0.811-2.267,0.811-3.733C199.527,18.067,199.256,17,198.783,16.133z"/>
<path fill="#46484D" d="M41.689,22.933H28.58v-7.467h11.757c0.27,0,0.541-0.2,0.541-0.533V12c0-0.267-0.203-0.533-0.541-0.533H28.58
	V4.733h3.716h9.392c0.27,0,0.541-0.2,0.541-0.533V1.133c0-0.267-0.203-0.533-0.541-0.533h-12.5H28.31c-2.5,0-4.527,2-4.527,4.467
	V22.6c0,2.467,2.027,4.467,4.527,4.467h13.378c0.27,0,0.541-0.2,0.541-0.533V23.4C42.229,23.2,41.959,22.933,41.689,22.933z"/>
</svg>
